<!-- Generated by IcoMoon.io -->
<svg version="1.1" xmlns="http://www.w3.org/2000/svg" width="32" height="32" viewBox="0 0 32 32">
<path d="M5.333 15.333v-2.667c0-1.105 0.447-2.103 1.172-2.828s1.723-1.172 2.828-1.172h15.448l-3.057 3.057c-0.521 0.521-0.521 1.365 0 1.885s1.365 0.521 1.885 0l5.333-5.333c0.128-0.128 0.224-0.275 0.289-0.432s0.101-0.329 0.101-0.511c0-0.173-0.033-0.348-0.101-0.511-0.065-0.157-0.161-0.304-0.289-0.432l-5.333-5.333c-0.521-0.521-1.365-0.521-1.885 0s-0.521 1.365 0 1.885l3.057 3.057h-15.448c-1.84 0-3.509 0.748-4.715 1.952s-1.952 2.875-1.952 4.715v2.667c0 0.736 0.597 1.333 1.333 1.333s1.333-0.597 1.333-1.333zM26.667 18v2.667c0 1.105-0.447 2.103-1.172 2.828s-1.723 1.172-2.828 1.172h-15.448l3.057-3.057c0.521-0.521 0.521-1.365 0-1.885s-1.365-0.521-1.885 0l-5.333 5.333c-0.123 0.123-0.221 0.269-0.289 0.432s-0.101 0.337-0.101 0.511c0 0.341 0.131 0.683 0.391 0.943l5.333 5.333c0.521 0.521 1.365 0.521 1.885 0s0.521-1.365 0-1.885l-3.057-3.057h15.448c1.84 0 3.509-0.748 4.715-1.952s1.952-2.875 1.952-4.715v-2.667c0-0.736-0.597-1.333-1.333-1.333s-1.333 0.597-1.333 1.333z"></path>
</svg>
