<!-- Generated by IcoMoon.io -->
<svg version="1.1" xmlns="http://www.w3.org/2000/svg" width="32" height="32" viewBox="0 0 32 32">
<path d="M14.667 28.667c0-0.736-0.3-1.404-0.781-1.885s-1.149-0.781-1.885-0.781-1.404 0.3-1.885 0.781-0.781 1.149-0.781 1.885 0.3 1.404 0.781 1.885 1.149 0.781 1.885 0.781 1.404-0.3 1.885-0.781 0.781-1.149 0.781-1.885zM29.333 28.667c0-0.736-0.3-1.404-0.781-1.885s-1.149-0.781-1.885-0.781-1.404 0.3-1.885 0.781-0.781 1.149-0.781 1.885 0.3 1.404 0.781 1.885 1.149 0.781 1.885 0.781 1.404-0.3 1.885-0.781 0.781-1.149 0.781-1.885zM9.628 10h19.427l-1.828 9.588c-0.061 0.304-0.221 0.567-0.443 0.757-0.24 0.208-0.551 0.328-0.917 0.321h-12.979c-0.309 0.004-0.601-0.095-0.835-0.271-0.253-0.191-0.439-0.468-0.505-0.804zM1.333 3.333h4.24l1.131 5.652c0.144 0.583 0.669 1.015 1.296 1.015h1.628l-0.533-2.667h-1.095c-0.736 0-1.333 0.597-1.333 1.333 0 0.071 0.005 0.14 0.016 0.207 0.005 0.037 0.013 0.076 0.023 0.112l2.228 11.129c0.199 1.001 0.76 1.844 1.52 2.415 0.695 0.523 1.56 0.817 2.472 0.804h12.941c0.997 0.020 1.94-0.348 2.66-0.969 0.659-0.568 1.131-1.351 1.313-2.244l2.136-11.203c0.137-0.724-0.336-1.421-1.060-1.56-0.087-0.017-0.173-0.025-0.249-0.024h-21.573l-1.12-5.595c-0.125-0.616-0.663-1.072-1.307-1.072h-5.333c-0.736 0-1.333 0.597-1.333 1.333s0.597 1.333 1.333 1.333z"></path>
</svg>
